<svg xmlns="http://www.w3.org/2000/svg" viewBox="0 0 1627.89 2408.67"><defs><style>.cls-1{fill:#fff;}</style></defs><g id="Layer_2" data-name="Layer 2"><g id="Isolation_Mode" data-name="Isolation Mode"><g id="doc_logo"><path class="cls-1" d="M681.73,1519.3c-125.66,42.82-261.87,56.17-393.77,44.51-50.69-7.48-111.35-11.41-147.46-52.09-28.72-48.6,36.71-80.4,75-91.25-33.23,13-65.59,52.9-36.39,85.6,42,37.31,103.07,40.75,156.47,47.19C451.77,1562.4,569.85,1547.6,681.73,1519.3Z"/><path class="cls-1" d="M574.67,1332.78H646V1389q-35,22.23-71.3,45.33Z"/><path class="cls-1" d="M655.57,1326.22H607.76v-36.93h71.67V1397l-23.86-15.34Z"/><path class="cls-1" d="M728.79,1499.93c50.32-25.64,89.16-69.31,20-103v-25.6C874.08,1406.21,822.87,1472.22,728.79,1499.93Z"/><path class="cls-1" d="M688.37,1400.35c.37-15.86-.72-31.31.42-46.44h55.66c.4,27.64-.9,55.22-.6,83.62Z"/><path class="cls-1" d="M245.94,1513v-80.78c13.43-1.34,27.24-.16,40.83-.46,33.54-1.86,53.88,40.81,32.39,66C301.69,1520.66,271,1511.09,245.94,1513Zm36.69-76.54v71.93C336.38,1514.16,335,1429.65,282.63,1436.46Z"/><path class="cls-1" d="M544.29,1458.81,656.42,1388l112.26,70.89c-9.86,1.32-22.12,2.91-31.16-2.17-27-17.56-54-34.52-81-52.24-36.58,17.85-69.29,59.06-111.81,55.31Z"/><path class="cls-1" d="M420,1473.12c.57,56.28-88.13,55.83-86.63-1.14C333.05,1414.41,422.37,1416.91,420,1473.12Zm-47,37.75c55.16,6.13,56.62-83-.23-76.92C371.29,1459.22,370.73,1485.67,373,1510.87Z"/><path class="cls-1" d="M504.33,1450.08c-2.62,1.06-3.86-.14-5.17-1.92-7-9.54-20.92-16.22-34.13-14.27-1.09,25.46-.87,51-.2,76.62,15.07,3.57,29.66-5.91,37.35-18.37,1.11-1.77,1.46-4.87,4.78-4.35,3.68,13.66-22,27.35-34.58,27.51-54,5.69-63.84-79.37-9.78-85.69C478.24,1427.63,500.45,1433.84,504.33,1450.08Z"/><path class="cls-1" d="M563,1347.6a65.39,65.39,0,0,1,.06,9.69c-49.13,1.78-99.58.93-148.3,11.06-48.93,8-97.43,25.64-145.45,33.29C364.15,1366.37,461.51,1347.62,563,1347.6Z"/><path class="cls-1" d="M719.42,1347.17H688v-28.43h31.47Z"/><path class="cls-1" d="M643.83,1430a22,22,0,0,1-.16-7.79h10.88c.93,2.38.2,4.82.44,7.43C651.12,1430.38,647.52,1429.88,643.83,1430Z"/><path class="cls-1" d="M657.63,1429.76v-7.45c3.72-.71,7.47-.11,11.46-.39a38.86,38.86,0,0,1,.1,7.84Z"/><path class="cls-1" d="M643.71,1438.66a21.6,21.6,0,0,1-.11-6.19h10.91c.9,1.76.38,3.68.36,5.85C651.18,1439.06,647.57,1438.6,643.71,1438.66Z"/><path class="cls-1" d="M669.12,1438.49H657.84c-.67-1.89-.36-3.81-.26-5.94,3.85-.56,7.59-.24,11.54-.22Z"/><path class="cls-1" d="M280,1884.3l48.89,51.89L288,1974.77,206.07,1954Z"/><path class="cls-1" d="M340.26,1938.68l-32.79-34.8,26.88-25.32,49.15,52.16-78.4,73.86c-1.77-9.51-3.45-18.58-5.19-27.89Z"/><path class="cls-1" d="M308.79,2013.39c11.8-10.61,22.3-22,34.09-31.54l38.17,40.51c-19.84,19.25-40.8,37.21-61.27,56.91C316,2056.76,312.41,2035.08,308.79,2013.39Z"/><path class="cls-1" d="M167.44,1948.62l128.42,33.06L321.23,2112c-7.72-6.27-17.28-14.1-19.78-24.16-5.77-31.73-11.89-63-17.54-94.8-38.07-14.38-90.5-9.93-116.93-43.44Z"/><path class="cls-1" d="M368.79,1999.52l-21.58-22.9,20.7-19.5L389.49,1980Z"/><path class="cls-1" d="M256.7,2001.27a22.33,22.33,0,0,1,5.56-5.46l7.46,7.93c-1.09,2.3-3.37,3.45-5.11,5.41C261.4,2006.87,259.29,2003.9,256.7,2001.27Z"/><path class="cls-1" d="M266.31,2011.18l5.42-5.11c3.07,2.22,5.2,5.37,8.14,8.08a39.09,39.09,0,0,1-5.63,5.45Z"/><path class="cls-1" d="M250.28,2007.15a21.63,21.63,0,0,1,4.43-4.32l7.48,7.94c-.65,1.86-2.42,2.8-4,4.27C255.12,2012.87,253,2009.92,250.28,2007.15Z"/><path class="cls-1" d="M267.83,2025.53l-7.73-8.21c.92-1.78,2.53-2.87,4.14-4.26,3.05,2.42,5.39,5.36,8.08,8.25Z"/><path class="cls-1" d="M606,2408.67l-46.85-65.79c10.17-8.89,22.09-15.94,33-24.07,26.24-21,67.56,2,64.66,35C655.83,2382.58,625.26,2392.6,606,2408.67ZM591.46,2325l41.73,58.59C680.32,2357.16,630.14,2289.15,591.46,2325Z"/><path class="cls-1" d="M724.65,2275.22c33.11,45.51-39.41,96.59-71.23,49.32C619.74,2277.84,694,2228.07,724.65,2275.22Zm-16.4,58c48.49-27-2-100.48-44.81-62.53C676.89,2292.16,691.78,2314,708.25,2333.24Z"/><path class="cls-1" d="M780,2207.55c-1.52,2.38-3.23,2.12-5.32,1.43-11.24-3.7-26.45-1.07-36.08,8.18,13.88,21.37,28.87,42.05,44.27,62.53,14.35-5.84,20.74-22,19.78-36.63-.13-2.09-1.64-4.81,1.37-6.31,10.92,9-2,35-12.22,42.46-40.72,36-98-27.62-57.67-64.13C745.69,2204.4,767.38,2196.58,780,2207.55Z"/><path class="cls-1" d="M1227,1762.94c114.28,67.54,213.06,162.28,290,270,27.31,43.35,63.81,92,56.42,145.86-18.22,53.44-84.94,24.46-118.1,2.44,31.51,16.76,82.85,15.38,88.68-28.08,1-56.16-36.14-104.78-66-149.51C1409.4,1909.5,1321.32,1829.47,1227,1762.94Z"/><path class="cls-1" d="M1181.69,1739.81c-52.21-21.52-110.64-22.59-91.25,51.81L1071,1808.28C1016,1690.49,1099.43,1686.42,1181.69,1739.81Z"/><path class="cls-1" d="M1174,1964.87a64.85,64.85,0,0,1,7.32-6.36c33.33,36.15,65.52,75,104.92,105.4,37.93,31.93,82.87,57.29,119.93,88.77C1317.58,2103.59,1240,2041.87,1174,1964.87Z"/></g><path class="cls-1" d="M1095.88,178.92C1201.61,98.65,1326.66,43,1455.5,12.46c50.45-8.89,109.26-24.3,156.36,2.91,42.58,37.06-9.47,87.88-42.38,110.26,27.43-22.84,45.55-70.9,7.52-92.71-51.61-22.16-110.66-6.16-163.36,4.58C1300.5,65.48,1193.11,116.78,1095.88,178.92Z"/><path class="cls-1" d="M1256.31,322.14l-67.66,22.5-17.74-53.38q26.16-32.13,53.35-65.51Z"/><path class="cls-1" d="M1181.61,353.89,1227,338.81l11.65,35-68,22.61-34-102.2,27.47,7Z"/><path class="cls-1" d="M1057.33,212.15c-39.66,40.21-62.74,93.9,13.47,104.07l8.08,24.29C949,346.93,976.8,268.13,1057.33,212.15Z"/><path class="cls-1" d="M1127.1,293.89c4.66,15.17,10.57,29.49,14.26,44.21l-52.82,17.56c-9.1-26.1-16.57-52.68-25.81-79.54Z"/><path class="cls-1" d="M1511.4,47.43l25.48,76.64c-12.32,5.51-25.79,8.75-38.59,13.33-31.24,12.34-64-21.74-51.56-52.41C1456.08,57.74,1488.25,57.14,1511.4,47.43Zm-10.67,84.2L1478,63.38C1425.21,74.86,1453.22,154.6,1500.73,131.63Z"/><path class="cls-1" d="M1245.38,193l-84.07,102.55-128.89-31.86c8.94-4.36,20.07-9.73,30.25-7.77,31.21,8.13,62.12,15.73,93.37,24,29.07-28.47,47.11-77.9,88.64-87.76Z"/><path class="cls-1" d="M1358.79,140.18c-18.3-53.22,66-80.78,82.56-26.25C1459.84,168.46,1374.29,194.26,1358.79,140.18Zm32.7-50.65c-54.28,11.59-27.53,96.65,24.48,72.92C1409.41,138,1401.6,112.72,1391.49,89.53Z"/><path class="cls-1" d="M1286.05,188.64c2.15-1.83,3.71-1.08,5.51.2,9.66,6.84,25,8.79,36.9,2.77-7-24.5-15.27-48.67-24-72.77-15.42,1.37-26.28,15-29.65,29.22-.49,2,.16,5.07-3.16,5.63-7.8-11.8,12.22-32.89,24.14-37,49.48-22.45,85.62,55.17,36.32,78.22C1317.89,201.71,1294.86,202.83,1286.05,188.64Z"/><path class="cls-1" d="M1262.76,304.39a65.8,65.8,0,0,1-3.12-9.18c46.07-17.19,94.21-32.3,137.24-57.29,43.9-23,84.37-55.06,127.52-77.47C1445.49,223.86,1359,272.37,1262.76,304.39Z"/><path class="cls-1" d="M1114.41,354.16l29.87-9.93,9,27-29.87,9.92Z"/><path class="cls-1" d="M1160,251.75a22.21,22.21,0,0,1,2.61,7.34l-10.33,3.43c-1.63-2-1.71-4.51-2.76-6.91C1153,253.65,1156.55,253,1160,251.75Z"/><path class="cls-1" d="M1147,256.29l2.35,7.07c-3.31,1.85-7.06,2.46-10.76,4a38.92,38.92,0,0,1-2.57-7.4Z"/><path class="cls-1" d="M1157.4,243.45a22.28,22.28,0,0,1,2.06,5.84l-10.36,3.44c-1.41-1.38-1.52-3.37-2.19-5.44C1150.18,245.43,1153.75,244.73,1157.4,243.45Z"/><path class="cls-1" d="M1133.34,251.63l10.7-3.56c1.23,1.59,1.54,3.51,2.12,5.55-3.47,1.75-7.12,2.63-10.88,3.85Z"/><path class="cls-1" d="M888.83,743.46,947.51,703l32,46.3q-16.15,38.15-32.93,77.8Z"/><path class="cls-1" d="M951.68,692.11l-39.34,27.15-21-30.39,59-40.71,61.18,88.64-28.35.93Z"/><path class="cls-1" d="M1020.79,734.49c-8.71-13.26-18.39-25.36-26-38.46l45.81-31.62c16,22.52,30.63,46,47,69.17Z"/><path class="cls-1" d="M935.41,864.44l52.08-122,132.66-5.41c-7.37,6.68-16.56,14.95-26.88,15.91-32.24.91-64,2.25-96.35,3-20,35.46-23.48,88-60.6,109Z"/><path class="cls-1" d="M1016.13,673.08,990.23,691l-16.15-23.4,25.9-17.88Z"/><path class="cls-1" d="M1000.94,784.15a22,22,0,0,1-4.55-6.31l9-6.19c2.12,1.44,2.91,3.86,4.59,5.87C1007.18,780.36,1003.93,782,1000.94,784.15Z"/><path class="cls-1" d="M1012.19,776.15,1008,770c2.66-2.7,6.09-4.33,9.22-6.83a38.9,38.9,0,0,1,4.53,6.39Z"/><path class="cls-1" d="M1005.79,791.39a22.08,22.08,0,0,1-3.61-5l9-6.2c1.74.93,2.4,2.81,3.62,4.61C1012.17,787.47,1008.93,789.14,1005.79,791.39Z"/><path class="cls-1" d="M1026.6,776.81l-9.28,6.41c-1.63-1.18-2.46-2.94-3.59-4.74,2.85-2.65,6.11-4.51,9.38-6.74Z"/><path class="cls-1" d="M1347.64,1054.57l52.71-61.2c11.05,7.75,20.75,17.65,31.24,26.28,26.62,20.48,14.19,66.09-18.52,71.14C1384.89,1096.76,1367.86,1069.46,1347.64,1054.57Zm77.75-34-46.94,54.5C1415.42,1114.47,1469.48,1049.5,1425.39,1020.52Z"/><path class="cls-1" d="M1505.57,1138c-36.28,43-103.2-15.2-64.9-57.39C1478,1036.71,1544,1096.89,1505.57,1138Zm-60.25-2.07c37.8,40.64,97.08-26,50-58.44C1477.72,1095.62,1460,1115.3,1445.32,1135.88Z"/><path class="cls-1" d="M1584.49,1175.51c-2.67-.91-2.83-2.63-2.66-4.83.91-11.8-5.27-25.94-16.55-33.09-17.44,18.58-33.94,38.08-50.15,57.93,9.09,12.53,26.33,14.88,40.29,10.46,2-.62,4.28-2.75,6.46-.18-6.13,12.75-34.5,6.39-44.15-1.72-44.67-30.95,3.41-101.8,48.49-71.32C1579.37,1141.47,1592.15,1160.67,1584.49,1175.51Z"/><path class="cls-1" d="M345.26,377.56C312.84,506.3,250,627.86,168.42,732.19c-33.85,38.46-70.14,87.23-123.91,95.41C-11.9,825.26-3,753.06,8.72,715c-7.15,35,8.72,83.82,52,77.1C114.91,777.18,151,727.8,185.47,686.49,256.33,594,308.15,486.83,345.26,377.56Z"/><path class="cls-1" d="M354.6,327.54c5.86-56.18-9.67-112.52-75.53-72.85l-21.48-13.93C355,154.64,382.51,233.52,354.6,327.54Z"/><path class="cls-1" d="M136.57,383.83a65.19,65.19,0,0,1,8.16,5.22c-25.23,42.2-53.38,84.08-71.38,130.47-19.88,45.42-31.48,95.7-51.18,140.16C44.18,560.86,81.4,469,136.57,383.83Z"/></g></g></svg>